<?xml version="1.0" encoding="iso-8859-1"?>
<!-- Generator: Adobe Illustrator 19.0.0, SVG Export Plug-In . SVG Version: 6.00 Build 0)  -->
<svg version="1.1" id="Capa_1" xmlns="http://www.w3.org/2000/svg" xmlns:xlink="http://www.w3.org/1999/xlink" x="0px" y="0px"
	 viewBox="0 0 512 512" style="enable-background:new 0 0 512 512;" xml:space="preserve">
<g>
	<g>
		<g>
			<path d="M469.333,64H42.667C19.146,64,0,83.135,0,106.667v298.667C0,428.865,19.146,448,42.667,448h426.667
				C492.854,448,512,428.865,512,405.333V106.667C512,83.135,492.854,64,469.333,64z M469.333,394.667
				c0,5.896-4.771,10.667-10.667,10.667H53.333c-5.896,0-10.667-4.771-10.667-10.667V117.333c0-5.896,4.771-10.667,10.667-10.667
				h405.333c5.896,0,10.667,4.771,10.667,10.667V394.667z"/>
			<path d="M96,192c2.729,0,5.458-1.042,7.542-3.125l21.333-21.333c4.167-4.167,4.167-10.917,0-15.083
				c-4.167-4.167-10.917-4.167-15.083,0l-21.333,21.333c-4.167,4.167-4.167,10.917,0,15.083C90.542,190.958,93.271,192,96,192z"/>
			<path d="M152.458,173.792l-64,64c-4.167,4.167-4.167,10.917,0,15.083C90.542,254.958,93.271,256,96,256s5.458-1.042,7.542-3.125
				l64-64c4.167-4.167,4.167-10.917,0-15.083C163.375,169.625,156.625,169.625,152.458,173.792z"/>
		</g>
	</g>
</g>
<g>
</g>
<g>
</g>
<g>
</g>
<g>
</g>
<g>
</g>
<g>
</g>
<g>
</g>
<g>
</g>
<g>
</g>
<g>
</g>
<g>
</g>
<g>
</g>
<g>
</g>
<g>
</g>
<g>
</g>
</svg>
