<?xml version="1.0" encoding="iso-8859-1"?>
<!-- Generator: Adobe Illustrator 19.0.0, SVG Export Plug-In . SVG Version: 6.00 Build 0)  -->
<svg version="1.1" id="Capa_1" xmlns="http://www.w3.org/2000/svg" xmlns:xlink="http://www.w3.org/1999/xlink" x="0px" y="0px"
	 viewBox="0 0 512 512" style="enable-background:new 0 0 512 512;" xml:space="preserve">
<g>
	<g>
		<g>
			<path d="M256,83.111c-36.944,0-67,30.056-67,67v8h-29c-44.112,0-80,35.888-80,80V345c0,44.112,35.888,80,80,80h192
				c44.112,0,80-35.888,80-80V238.111c0-44.112-35.888-80-80-80h-29v-8C323,113.167,292.944,83.111,256,83.111z M229,150.111
				c0-14.888,12.112-27,27-27s27,12.112,27,27v8h-54V150.111z M352,198.111c22.056,0,40,17.945,40,40V345c0,22.056-17.944,40-40,40
				H160c-22.056,0-40-17.944-40-40v-61h39v20c0,11.046,8.954,20,20,20s20-8.954,20-20v-20h114v20c0,11.046,8.954,20,20,20
				c11.046,0,20-8.954,20-20v-39c0-5.778-2.464-10.967-6.382-14.618C342.967,246.464,337.778,244,332,244H120v-5.889
				c0-22.056,17.944-40,40-40H352z"/>
			<path d="M492,352c11.046,0,20-8.954,20-20V80c0-44.112-35.888-80-80-80H80C35.888,0,0,35.888,0,80v352c0,44.112,35.888,80,80,80
				h352c44.112,0,80-35.888,80-80c0-11.046-8.954-20-20-20c-11.046,0-20,8.954-20,20c0,22.056-17.944,40-40,40H80
				c-22.056,0-40-17.944-40-40V80c0-22.056,17.944-40,40-40h352c22.056,0,40,17.944,40,40v252C472,343.046,480.954,352,492,352z"/>
		</g>
	</g>
</g>
<g>
</g>
<g>
</g>
<g>
</g>
<g>
</g>
<g>
</g>
<g>
</g>
<g>
</g>
<g>
</g>
<g>
</g>
<g>
</g>
<g>
</g>
<g>
</g>
<g>
</g>
<g>
</g>
<g>
</g>
</svg>
